<svg width="30" height="30" viewBox="0 0 30 30" fill="none" xmlns="http://www.w3.org/2000/svg">
<g clip-path="url(#clip0)">
<path d="M26.5624 27.5196H3.43758C1.54129 27.5196 0 25.9783 0 24.082V8.45695C0 6.56067 1.54129 5.01961 3.43758 5.01961H10.9376C11.4551 5.01961 11.8751 5.43961 11.8751 5.95711C11.8751 6.47461 11.4551 6.89461 10.9376 6.89461H3.43758C2.57629 6.89461 1.875 7.59567 1.875 8.45695V24.082C1.875 24.9433 2.57629 25.6446 3.43758 25.6446H26.5624C27.4237 25.6446 28.125 24.9433 28.125 24.082V8.45695C28.125 7.59567 27.4237 6.89461 26.5624 6.89461H19.0624C18.5449 6.89461 18.1249 6.47461 18.1249 5.95711C18.1249 5.43961 18.5449 5.01961 19.0624 5.01961H26.5624C28.4587 5.01961 30 6.56067 30 8.45695V24.082C30 25.9783 28.4587 27.5196 26.5624 27.5196Z" fill="white"/>
<path d="M17.8125 9.39445H12.1875C10.9813 9.39445 10.0001 8.41324 10.0001 7.20703V4.70695C10.0001 3.50075 10.9813 2.51953 12.1875 2.51953H17.8125C19.0187 2.51953 19.9999 3.50075 19.9999 4.70695V7.20703C19.9999 8.41324 19.0187 9.39445 17.8125 9.39445ZM12.1875 4.39453C12.0149 4.39453 11.8751 4.53461 11.8751 4.70695V7.20703C11.8751 7.37961 12.0149 7.51945 12.1875 7.51945H17.8125C17.9851 7.51945 18.1249 7.37961 18.1249 7.20703V4.70695C18.1249 4.53461 17.9851 4.39453 17.8125 4.39453H12.1875Z" fill="white"/>
<path d="M9.375 17.5195C7.65244 17.5195 6.25008 16.1169 6.25008 14.3946C6.25008 12.672 7.65244 11.2695 9.375 11.2695C11.0976 11.2695 12.4999 12.672 12.4999 14.3946C12.4999 16.1169 11.0976 17.5195 9.375 17.5195ZM9.375 13.1445C8.68629 13.1445 8.12508 13.7057 8.12508 14.3946C8.12508 15.0833 8.68629 15.6445 9.375 15.6445C10.0637 15.6445 10.6249 15.0833 10.6249 14.3946C10.6249 13.7057 10.0637 13.1445 9.375 13.1445Z" fill="white"/>
<path d="M14.0625 23.7696C13.545 23.7696 13.125 23.3496 13.125 22.8321V22.207C13.125 21.3457 12.4237 20.6445 11.5624 20.6445H7.18758C6.32629 20.6445 5.625 21.3457 5.625 22.207V22.8321C5.625 23.3496 5.205 23.7696 4.6875 23.7696C4.17 23.7696 3.75 23.3496 3.75 22.8321V22.207C3.75 20.3107 5.29129 18.7695 7.18758 18.7695H11.5624C13.4587 18.7695 15 20.3107 15 22.207V22.8321C15 23.3496 14.58 23.7696 14.0625 23.7696Z" fill="white"/>
<path d="M25.3125 13.7695H18.4376C17.9201 13.7695 17.5001 13.3495 17.5001 12.832C17.5001 12.3145 17.9201 11.8945 18.4376 11.8945H25.3125C25.83 11.8945 26.25 12.3145 26.25 12.832C26.25 13.3495 25.83 13.7695 25.3125 13.7695Z" fill="white"/>
<path d="M25.3125 18.7695H18.4376C17.9201 18.7695 17.5001 18.3495 17.5001 17.832C17.5001 17.3145 17.9201 16.8945 18.4376 16.8945H25.3125C25.83 16.8945 26.25 17.3145 26.25 17.832C26.25 18.3495 25.83 18.7695 25.3125 18.7695Z" fill="white"/>
<path d="M25.3125 23.7696H18.4376C17.9201 23.7696 17.5001 23.3496 17.5001 22.8321C17.5001 22.3146 17.9201 21.8946 18.4376 21.8946H25.3125C25.83 21.8946 26.25 22.3146 26.25 22.8321C26.25 23.3496 25.83 23.7696 25.3125 23.7696Z" fill="white"/>
</g>
<defs>
<clipPath id="clip0">
<rect width="30" height="30" fill="white"/>
</clipPath>
</defs>
</svg>
