<svg width="28" height="28" viewBox="0 0 28 28" fill="none" xmlns="http://www.w3.org/2000/svg">
<path d="M14 3.5C16.0767 3.5 18.1068 4.11581 19.8335 5.26957C21.5602 6.42332 22.906 8.0632 23.7007 9.98182C24.4955 11.9004 24.7034 14.0116 24.2982 16.0484C23.8931 18.0852 22.8931 19.9562 21.4246 21.4246C19.9562 22.8931 18.0853 23.8931 16.0484 24.2982C14.0116 24.7034 11.9004 24.4955 9.98183 23.7007C8.0632 22.906 6.42333 21.5602 5.26957 19.8335C4.11582 18.1068 3.5 16.0767 3.5 14C3.5 11.2152 4.60625 8.54451 6.57538 6.57538C8.54451 4.60625 11.2152 3.5 14 3.5ZM14 1.75C11.5772 1.75 9.20877 2.46845 7.19427 3.8145C5.17976 5.16054 3.60965 7.07373 2.68248 9.31213C1.7553 11.5505 1.51271 14.0136 1.98538 16.3899C2.45805 18.7661 3.62475 20.9489 5.33794 22.6621C7.05114 24.3752 9.23388 25.542 11.6101 26.0146C13.9864 26.4873 16.4495 26.2447 18.6879 25.3175C20.9263 24.3904 22.8395 22.8202 24.1855 20.8057C25.5316 18.7912 26.25 16.4228 26.25 14C26.25 10.7511 24.9594 7.63526 22.6621 5.33794C20.3647 3.04062 17.2489 1.75 14 1.75Z" fill="white"/>
<path d="M10.5 20.125C10.343 20.125 10.1888 20.0826 10.0537 20.0025C9.92313 19.9251 9.81492 19.815 9.73974 19.683C9.66457 19.5511 9.62503 19.4019 9.625 19.25V8.75001C9.62503 8.59816 9.66457 8.44893 9.73974 8.31699C9.81492 8.18505 9.92313 8.07495 10.0537 7.99751C10.1868 7.92071 10.3377 7.88028 10.4912 7.88028C10.6448 7.88028 10.7957 7.92071 10.9287 7.99751L20.5537 13.2475C20.6927 13.3225 20.8087 13.4336 20.8896 13.5692C20.9704 13.7047 21.0131 13.8597 21.0131 14.0175C21.0131 14.1754 20.9704 14.3303 20.8896 14.4658C20.8087 14.6014 20.6927 14.7125 20.5537 14.7875L10.9287 20.0375C10.7956 20.1025 10.648 20.1326 10.5 20.125ZM11.375 10.22V17.78L18.2962 14L11.375 10.22Z" fill="white"/>
</svg>
